/* XPM */
static char *bitcoin32_xpm[] = {
/* width height num_colors chars_per_pixel */
"    32    32       32            1",
/* colors */
"` c #040850",
". c #878990",
"# c #444442",
"a c #36291c",
"b c #052778",
"c c #504841",
"d c #cdc8cf",
"e c #ada8b3",
"f c #0448a0",
"g c #243268",
"h c #141945",
"i c #1c3354",
"j c #153970",
"k c #676672",
"l c #a09cae",
"m c #242c3e",
"n c #0455bf",
"o c #ecebeb",
"p c #6c789c",
"q c #585a66",
"r c #bdbbc3",
"s c #dcdedc",
"t c #393731",
"u c #949699",
"v c #3d4673",
"w c #fcfefc",
"x c #786888",
"y c #041864",
"z c #043a8f",
"A c #807894",
"B c #19275f",
"C c #333b69",
/* pixels */
"wwwwwwwwwwor.kcc#ck.rowwwwwwwwww",
"wwwwwwwws.caaammmaaaac.swwwwwwww",
"wwwwwwwutaaijffffnfjiaatuwwwwwww",
"wwwwwoqtaifnnnfnffnnnfiaaqowwwww",
"wwwwscaafnnffzbbybzfffnfmacswwww",
"wwwo#amnnzffyyivvjyyfffnnma#owww",
"wwwqamnnzfz`vewwwwev`zfzfniaqwww",
"wwuamnffff`xwwwwwwwwA`zfffnmauww",
"wotafnfff`kwwwoelowwwk`fffnfaaow",
"w.ainfzfbBwwwlh``huwwwBbffznia.w",
"wtafffff`.wwr`yfzb`rww.`fffffatw",
"rainffff`rwwC`ffff`Cwwryzfffniar",
".ajnzffzydwwBbffffbgwwryzfffnja.",
"kaffffff`rwwCyffffbgwwryfffznfak",
"caffffff`.wwl`bfffbCwwryzfffffmc",
"cmffffffbgwww.```y`gwwryzfffffm#",
"#mfffffff`Awwwd.urvhwwryzffzffmc",
"cmfnffzffz`uwwwwwwomowryzfffffac",
"kaffffffffz`qdwwwwuhwwdyzfffnfak",
".ajnfffffffzyyvkkv`Bwwryzffznja.",
"rainzffzfffffzbyyb`vwwr`ffffniar",
"wtafnjfffzfzfffffb`rwwAyfffffatw",
"w.ainfffffybyfzy`hewwwBbffznja.w",
"woaafnffzbxdAybldowwwq`fffnfaaow",
"wwutmnffzbwww`pwwwwwx`ffffnmauww",
"wwwqamnfzyrwd`CowoeC`zfzfniaqwww",
"wwwo#ainnzyvbzbjCB`bffznnia#owww",
"wwwws#amfnfbzffbbzzfznnfma#swwww",
"wwwwwoqaajfnnffnffnnnfjaaqowwwww",
"wwwwwwwutaaijfffnffjiaatuwwwwwww",
"wwwwwwwws.taaammmmaaa#.swwwwwwww",
"wwwwwwwwwworukcc#ck.rowwwwwwwwww"
};
