/* XPM */
static char *bitcoin64_xpm[] = {
/* width height num_colors chars_per_pixel */
"    64    64       64            2",
/* colors */
"`` c #04021e",
"`. c #7a85a2",
"`# c #04459a",
"`a c #1f2434",
"`b c #4a494a",
"`c c #052468",
"`d c #c4c4cb",
"`e c #242d61",
"`f c #526288",
"`g c #94a2b4",
"`h c #040547",
"`i c #083578",
"`j c #3a466e",
"`k c #0c54ae",
"`l c #e3e4e5",
"`m c #353332",
"`n c #6c6b6c",
"`o c #041552",
"`p c #b9b9bd",
"`q c #8793ac",
"`r c #1c376f",
"`s c #312417",
"`t c #575857",
"`u c #162c62",
"`v c #d1d2dc",
"`w c #043d8a",
"`x c #191e34",
"`y c #064da9",
"`z c #055abf",
"`A c #1c1e4c",
"`B c #253a6a",
"`C c #acb0ba",
"`D c #041860",
"`E c #fcfefc",
"`F c #787978",
"`G c #616f8d",
"`H c #4c5580",
"`I c #848384",
"`J c #291c1a",
"`K c #646564",
"`L c #444c71",
"`M c #162e54",
"`N c #9a9b9a",
"`O c #747d9c",
"`P c #ededee",
"`Q c #dddcde",
"`R c #3c5284",
"`S c #a6a6ad",
"`T c #393d63",
"`U c #868aa2",
"`V c #040337",
"`W c #5c6788",
"`X c #545e7c",
"`Y c #392c1f",
"`Z c #737190",
"`0 c #040c50",
"`1 c #c4bec7",
"`2 c #0c4a9c",
"`3 c #082c68",
"`4 c #cbccd1",
"`5 c #3c3c3c",
"`6 c #949db3",
"`7 c #7c8da8",
"`8 c #043a7c",
/* pixels */
"`E`E`E`E`E`E`E`E`E`E`E`E`E`E`E`E`E`E`E`E`E`E`E`E`P`4`S`I`K`t`b`b`b`b`t`n`I`S`4`P`E`E`E`E`E`E`E`E`E`E`E`E`E`E`E`E`E`E`E`E`E`E`E`E",
"`E`E`E`E`E`E`E`E`E`E`E`E`E`E`E`E`E`E`E`E`E`Q`N`n`b`m`m`m`m`m`m`m`m`m`m`m`m`m`m`5`n`N`Q`E`E`E`E`E`E`E`E`E`E`E`E`E`E`E`E`E`E`E`E`E",
"`E`E`E`E`E`E`E`E`E`E`E`E`E`E`E`E`E`E`E`S`K`m`m`m`m`m`m`m`m`Y`m`Y`Y`m`Y`m`m`m`m`m`m`m`m`t`C`E`E`E`E`E`E`E`E`E`E`E`E`E`E`E`E`E`E`E",
"`E`E`E`E`E`E`E`E`E`E`E`E`E`E`E`E`E`N`b`m`m`m`m`m`Y`s`s`J`a`a`a`a`a`a`a`a`s`s`s`m`m`m`m`m`m`5`N`E`E`E`E`E`E`E`E`E`E`E`E`E`E`E`E`E",
"`E`E`E`E`E`E`E`E`E`E`E`E`E`E`E`p`b`m`m`m`m`Y`s`J`a`M`i`8`2`#`y`y`y`y`#`#`8`i`M`a`J`s`m`m`m`m`m`b`C`E`E`E`E`E`E`E`E`E`E`E`E`E`E`E",
"`E`E`E`E`E`E`E`E`E`E`E`E`E`P`n`m`m`m`m`Y`J`a`3`w`y`z`z`z`k`k`y`k`y`k`z`k`z`z`z`y`w`3`a`s`Y`m`m`m`m`n`l`E`E`E`E`E`E`E`E`E`E`E`E`E",
"`E`E`E`E`E`E`E`E`E`E`E`E`d`5`m`m`m`Y`s`x`8`y`z`z`k`y`#`2`#`#`#`#`#`#`#`#`#`2`y`k`z`z`y`i`x`s`Y`m`m`m`5`1`E`E`E`E`E`E`E`E`E`E`E`E",
"`E`E`E`E`E`E`E`E`E`E`E`N`m`m`m`m`s`x`i`z`z`k`y`#`#`#`#`#`#`#`#`#`#`#`#`#`2`#`#`#`2`2`k`z`z`i`x`s`m`m`m`m`N`E`E`E`E`E`E`E`E`E`E`E",
"`E`E`E`E`E`E`E`E`E`E`I`m`m`m`m`J`3`y`z`y`#`#`2`#`2`#`#`#`#`w`#`w`#`w`#`#`w`#`#`#`#`#`#`#`k`z`y`M`J`Y`m`a`m`F`E`E`E`E`E`E`E`E`E`E",
"`E`E`E`E`E`E`E`E`E`F`m`m`m`Y`J`i`z`z`2`#`2`#`#`#`#`w`w`w`w`w`w`8`8`w`w`w`w`w`#`#`#`2`#`#`#`2`z`z`w`J`Y`5`m`m`F`E`E`E`E`E`E`E`E`E",
"`E`E`E`E`E`E`E`E`I`m`m`m`s`x`#`z`y`#`#`#`#`#`#`w`w`w`w`8`c`o`0`0`0`0`o`c`i`w`8`w`w`#`#`2`#`#`#`2`z`y`x`s`m`m`m`F`E`E`E`E`E`E`E`E",
"`E`E`E`E`E`E`E`N`m`m`m`s`x`k`z`y`#`2`#`2`#`#`w`w`w`i`0`0`u`R`G`O`O`W`L`3`0`0`i`w`w`w`#`#`#`2`#`y`#`z`z`x`s`m`m`m`N`E`E`E`E`E`E`E",
"`E`E`E`E`E`E`d`m`m`m`s`x`z`z`#`2`#`#`#`#`w`w`w`w`o`0`H`C`P`E`E`E`E`E`E`E`C`H`0`0`w`w`w`#`w`2`#`#`2`#`z`z`x`s`m`m`m`d`E`E`E`E`E`E",
"`E`E`E`E`E`P`5`m`m`Y`x`k`z`#`#`#`#`2`#`#`w`#`i`h`T`1`E`E`E`E`E`E`E`E`E`E`E`E`1`T`h`i`w`w`#`#`#`#`#`2`#`z`k`x`Y`m`a`5`P`E`E`E`E`E",
"`E`E`E`E`E`n`m`m`Y`x`#`z`#`#`2`#`#`#`#`w`w`3`h`Z`E`E`E`E`E`E`E`E`E`E`E`E`E`E`E`E`Z`V`3`w`w`#`#`#`#`2`#`#`z`y`J`m`m`m`K`E`E`E`E`E",
"`E`E`E`E`p`m`m`m`J`8`z`y`2`#`#`2`#`#`w`w`i`h`.`E`E`E`E`E`E`E`E`E`E`E`E`E`E`E`E`E`E`U`h`3`w`w`#`#`#`#`#`2`#`z`w`J`m`m`m`p`E`E`E`E",
"`E`E`E`E`5`m`m`s`3`z`k`#`#`#`#`#`#`#`w`w`h`Z`E`E`E`E`E`E`E`E`E`E`E`E`E`E`E`E`E`E`E`E`O`h`8`w`#`#`#`#`#`#`2`y`z`3`s`m`m`5`E`E`E`E",
"`E`E`E`N`m`m`Y`x`y`k`#`#`2`#`2`#`#`w`w`h`j`E`E`E`E`E`E`E`E`1`.`W`W`U`1`E`E`E`E`E`E`E`E`j`0`w`w`#`2`#`#`#`#`2`k`y`a`Y`m`m`N`E`E`E",
"`E`E`E`5`m`m`s`i`z`y`#`#`#`#`#`#`w`w`3`0`Q`E`E`E`E`E`E`4`T`V`V`h`V`V`V`T`d`E`E`E`E`E`E`l`0`3`w`w`#`2`#`#`#`2`#`z`8`s`m`m`5`E`E`E",
"`E`E`C`m`m`Y`x`z`k`#`2`#`2`#`#`#`#`w`h`G`E`E`E`E`E`E`C`V`V`i`i`8`8`i`3`h```S`E`E`E`E`E`E`G`h`w`w`#`#`#`2`#`#`2`k`k`x`Y`m`m`S`E`E",
"`E`E`t`m`m`s`8`z`#`#`#`#`#`2`#`#`w`i`0`v`E`E`E`E`E`4```o`8`8`8`w`w`w`8`8`D`V`d`E`E`E`E`E`v`0`i`w`#`#`2`#`#`#`#`#`z`8`s`m`m`t`E`E",
"`E`l`m`m`Y`a`y`k`#`2`#`2`#`#`#`w`w`D`B`E`E`E`E`E`E`e`h`8`w`w`#`#`#`w`#`8`8`0`M`E`E`E`E`E`E`B`D`w`#`#`#`#`#`#`y`#`k`y`a`Y`m`m`Q`E",
"`E`N`m`m`s`3`z`y`#`#`#`#`2`#`#`#`w`0`f`E`E`E`E`E`C`V`i`8`w`#`#`#`#`#`#`w`8`i`V`S`E`E`E`E`E`W`0`w`w`#`2`#`#`#`#`#`y`z`3`s`m`m`N`E",
"`E`n`m`m`s`w`z`#`2`#`2`#`#`#`#`w`w`h`7`E`E`E`E`E`G`V`8`w`#`#`#`2`#`#`#`#`w`8`V`W`E`E`E`E`E`7`0`w`w`#`#`#`2`#`2`#`#`z`w`s`m`m`K`E",
"`E`5`m`Y`a`y`k`#`#`#`#`2`#`#`#`w`w`h`6`E`E`E`E`E`L`0`i`w`#`#`#`#`#`#`#`#`w`8`0`j`E`E`E`E`E`g`h`8`w`#`#`2`#`#`#`#`#`k`y`a`m`m`5`E",
"`4`m`m`s`M`z`#`#`2`#`#`#`#`#`#`w`w`h`6`E`E`E`E`E`L`0`8`w`#`#`2`#`2`#`#`#`w`w`0`L`E`E`E`E`E`6`h`8`w`#`#`#`#`2`#`2`#`2`z`u`s`m`m`d",
"`S`m`m`s`i`z`2`#`#`2`#`y`#`#`2`w`w`h`q`E`E`E`E`E`X`h`i`w`#`#`#`#`#`#`2`#`w`w`o`R`E`E`E`E`E`6`h`8`w`#`#`2`#`#`#`#`#`y`z`i`s`m`m`g",
"`I`m`m`J`w`z`2`#`#`#`#`#`#`#`#`w`w`h`G`E`E`E`E`E`6`V`i`8`w`#`#`#`#`#`#`#`#`w`0`L`E`E`E`E`E`6`h`8`w`#`#`#`#`2`#`2`#`#`k`w`s`m`m`F",
"`K`m`m`a`2`k`#`#`2`#`y`#`#`2`#`#`w`D`j`E`E`E`E`E`P`o`o`8`w`w`#`#`#`2`#`#`w`i`D`L`E`E`E`E`E`6`h`8`w`#`#`2`#`#`#`#`2`#`k`#`s`m`m`K",
"`t`m`m`J`#`k`#`#`#`2`#`#`#`#`#`w`w`3`D`l`E`E`E`E`E`N```3`8`w`w`w`#`w`w`w`w`i`0`L`E`E`E`E`E`6`h`8`w`#`#`#`#`2`#`#`#`#`k`2`A`m`m`t",
"`b`m`Y`a`y`k`#`#`#`#`#`#`#`2`#`#`w`w`h`7`E`E`E`E`E`E`Z```D`8`8`w`i`w`w`w`i`w`0`L`E`E`E`E`E`6`h`8`w`#`#`2`#`#`2`#`2`#`y`y`a`Y`m`b",
"`b`m`m`a`y`k`#`#`2`y`#`#`#`#`2`#`#`w`c`A`E`E`E`E`E`E`E`U`0`V`0`D`D`D`h`0`c`i`0`j`E`E`E`E`E`6`h`8`w`#`#`#`#`#`#`#`#`#`k`y`a`m`m`b",
"`b`m`Y`a`y`y`y`#`#`#`#`#`2`#`#`#`w`w`w`h`G`E`E`E`E`E`E`E`Q`I`j`e`B`L`q`q`u`0`V`L`E`E`E`E`E`6`h`8`w`#`#`#`2`#`2`#`2`#`y`y`a`Y`m`b",
"`b`m`m`a`y`k`#`#`2`#`#`#`#`#`2`#`#`#`w`3`h`C`E`E`E`E`E`E`E`E`E`E`E`E`E`E`P`B```L`E`E`E`E`E`6`h`8`w`#`#`#`2`#`#`#`#`#`k`y`a`m`m`b",
"`t`m`m`a`#`k`#`#`#`2`#`#`2`#`#`#`#`w`w`w`c`h`d`E`E`E`E`E`E`E`E`E`E`E`E`E`E`4```j`E`E`E`E`E`6`h`8`w`#`#`#`#`2`#`2`#`#`y`y`a`m`m`t",
"`K`m`m`J`#`z`#`#`#`y`#`#`#`#`2`2`#`#`#`w`w`D`0`C`E`E`E`E`E`E`E`E`E`E`E`E`E`P```T`E`E`E`E`E`6`h`8`w`#`#`#`2`#`#`#`#`2`k`#`J`m`m`K",
"`I`m`m`s`w`z`2`#`2`#`#`#`2`#`#`#`2`#`#`#`w`w`c`h`Z`E`E`E`E`E`E`E`E`E`E`E`E`p```j`E`E`E`E`E`6`h`8`w`#`#`#`2`#`#`2`#`#`k`w`s`m`m`F",
"`S`m`m`s`i`z`#`#`#`#`#`#`#`#`2`#`#`2`w`2`w`w`w`3`h`e`6`P`E`E`E`E`E`E`E`E`4`A```L`E`E`E`E`E`6`h`8`w`#`#`#`#`2`#`#`#`2`z`i`s`m`m`S",
"`4`m`m`s`M`z`2`#`2`#`y`#`2`#`#`#`#`#`2`#`#`#`w`w`8`D`h`c`H`U`S`p`C`C`q`H`o`o`V`j`E`E`E`E`E`6`h`8`w`#`#`2`#`#`#`#`#`2`k`u`Y`m`m`d",
"`E`m`m`Y`a`y`k`#`#`#`#`#`#`#`2`#`2`#`#`#`#`#`#`w`w`w`8`c`o`0`0`0`0`0`h`0`3`i`V`L`E`E`E`E`E`g`h`w`w`#`#`#`#`2`#`2`#`y`y`a`Y`m`m`E",
"`E`K`m`m`a`w`z`#`2`#`#`#`2`#`#`#`#`2`#`2`#`#`2`#`#`w`w`w`w`8`8`8`i`8`w`w`i`i`V`G`E`E`E`E`E`7`h`w`w`#`#`2`#`#`#`#`2`k`#`J`m`m`K`E",
"`E`N`m`m`s`M`z`2`#`2`#`#`#`#`2`#`#`#`#`#`#`#`#`#`#`#`#`#`w`w`w`w`w`w`w`8`i`3```p`E`E`E`E`E`f`0`w`w`#`#`#`#`2`#`#`2`z`u`s`m`m`N`E",
"`E`l`m`m`Y`a`y`k`#`#`y`#`#`2`#`#`2`#`2`w`2`#`#`#`#`2`#`#`#`#`#`#`w`w`w`8`8`V`B`E`E`E`E`E`E`r`D`w`#`#`#`2`#`#`2`#`y`y`A`m`m`m`Q`E",
"`E`E`t`m`m`s`i`z`y`#`#`#`#`#`#`2`#`#`#`#`w`#`w`w`#`w`#`#`w`#`w`#`w`w`8`w`0`V`Q`E`E`E`E`E`d`0`i`w`#`#`#`#`2`#`#`2`z`i`s`m`m`t`E`E",
"`E`E`C`m`m`Y`a`z`y`2`#`2`#`#`2`#`#`#`w`#`w`w`w`w`w`w`w`#`w`#`w`w`i`8`c`V`0`4`E`E`E`E`E`E`f`h`w`#`#`#`2`#`#`#`#`y`k`A`Y`m`m`S`E`E",
"`E`E`E`5`m`m`J`i`z`2`#`#`#`#`#`#`#`#`w`w`w`D`D`D`D`i`w`w`w`w`c`0`h`h`0`H`l`E`E`E`E`E`E`v`h`i`w`w`#`#`#`#`2`#`2`z`i`s`m`m`5`E`E`E",
"`E`E`E`N`m`m`Y`a`y`z`#`2`#`y`2`#`#`#`w`w`0`H`C`C`W`0`i`i`w`D`r`U`q`S`Q`E`E`E`E`E`E`E`E`e`o`w`w`#`#`#`#`2`#`#`k`k`x`Y`m`m`N`E`E`E",
"`E`E`E`E`5`m`m`s`3`z`y`2`#`#`#`2`w`w`w`D`W`E`E`E`E`.`0`8`D`T`P`E`E`E`E`E`E`E`E`E`E`E`W`h`8`w`#`#`#`2`#`#`#`2`z`u`s`m`m`5`E`E`E`E",
"`E`E`E`E`p`m`m`m`J`8`z`2`#`#`#`#`#`#`i`D`P`E`E`E`E`E`r`D`0`v`E`E`E`E`E`E`E`E`E`E`E`Z`V`8`w`w`#`#`#`#`#`2`2`z`w`J`m`m`m`C`E`E`E`E",
"`E`E`E`E`E`n`m`m`Y`J`y`z`2`#`#`2`#`w`c`w`E`E`E`E`E`E`R`h`3`P`E`E`E`E`E`E`E`E`E`P`H`h`i`w`w`#`#`#`2`#`#`#`k`y`x`Y`m`m`K`E`E`E`E`E",
"`E`E`E`E`E`P`5`m`m`Y`x`k`z`#`#`#`#`w`w`D`4`E`E`E`E`E`c`D`0`C`E`E`E`E`E`E`E`E`C`e`h`i`w`w`#`#`#`#`#`#`2`k`z`A`Y`m`m`m`P`E`E`E`E`E",
"`E`E`E`E`E`E`d`m`m`m`s`x`z`z`2`#`#`w`w`D`r`l`E`E`P`H`0`8`c`u`4`E`E`E`E`v`6`T`h`D`8`w`w`#`#`#`#`2`#`2`z`k`A`s`m`m`m`1`E`E`E`E`E`E",
"`E`E`E`E`E`E`E`N`m`m`m`s`A`y`z`2`#`#`#`w`D`u`O`.`r`D`8`8`w`c`D`H`f`R`B`D`h`o`8`w`w`#`#`#`#`#`#`#`2`z`k`D`s`m`m`m`q`E`E`E`E`E`E`E",
"`E`E`E`E`E`E`E`E`I`m`m`m`s`x`y`z`2`#`#`w`w`3`D`D`c`w`w`w`w`#`i`D`D`D`D`i`i`w`w`w`#`#`#`#`#`#`2`y`z`y`x`Y`m`m`m`F`E`E`E`E`E`E`E`E",
"`E`E`E`E`E`E`E`E`E`F`m`m`m`Y`x`w`z`k`2`#`w`#`w`w`w`#`w`#`w`w`w`w`w`w`w`w`w`#`w`#`#`#`#`#`#`2`k`z`w`x`Y`m`m`m`F`E`E`E`E`E`E`E`E`E",
"`E`E`E`E`E`E`E`E`E`E`O`m`m`m`Y`J`u`y`z`2`2`w`#`#`#`#`#`#`#`#`#`#`w`#`w`#`#`#`#`#`#`#`#`2`k`z`k`c`J`Y`m`m`m`F`E`E`E`E`E`E`E`E`E`E",
"`E`E`E`E`E`E`E`E`E`E`E`N`m`m`m`m`s`x`i`z`z`y`2`#`#`#`#`#`#`#`#`#`#`#`2`#`#`#`#`#`2`2`k`z`k`i`x`Y`m`m`m`m`N`E`E`E`E`E`E`E`E`E`E`E",
"`E`E`E`E`E`E`E`E`E`E`E`E`p`5`m`m`m`Y`s`A`i`y`z`z`y`2`y`#`2`#`#`#`#`#`#`#`2`2`y`y`z`z`y`i`A`s`Y`m`m`m`5`p`E`E`E`E`E`E`E`E`E`E`E`E",
"`E`E`E`E`E`E`E`E`E`E`E`E`E`l`n`m`m`m`m`Y`s`a`u`w`y`z`z`z`k`k`y`k`y`k`k`k`z`z`z`y`w`u`A`s`Y`m`m`m`m`n`l`E`E`E`E`E`E`E`E`E`E`E`E`E",
"`E`E`E`E`E`E`E`E`E`E`E`E`E`E`E`C`b`m`m`m`m`m`s`s`A`M`r`w`#`2`y`y`y`y`y`#`w`r`u`a`s`s`m`m`m`m`m`b`C`E`E`E`E`E`E`E`E`E`E`E`E`E`E`E",
"`E`E`E`E`E`E`E`E`E`E`E`E`E`E`E`E`E`N`b`a`m`m`m`m`Y`Y`s`J`s`A`a`a`a`a`a`J`s`s`s`m`m`m`m`m`m`b`N`E`E`E`E`E`E`E`E`E`E`E`E`E`E`E`E`E",
"`E`E`E`E`E`E`E`E`E`E`E`E`E`E`E`E`E`E`P`C`K`m`m`m`m`m`m`m`m`m`Y`m`m`Y`m`m`m`m`m`m`m`m`m`t`S`P`E`E`E`E`E`E`E`E`E`E`E`E`E`E`E`E`E`E",
"`E`E`E`E`E`E`E`E`E`E`E`E`E`E`E`E`E`E`E`E`E`Q`N`n`5`m`m`m`m`m`m`m`m`m`m`m`m`m`m`5`K`N`Q`E`E`E`E`E`E`E`E`E`E`E`E`E`E`E`E`E`E`E`E`E",
"`E`E`E`E`E`E`E`E`E`E`E`E`E`E`E`E`E`E`E`E`E`E`E`E`P`4`g`I`K`t`b`b`b`b`t`K`O`S`d`P`E`E`E`E`E`E`E`E`E`E`E`E`E`E`E`E`E`E`E`E`E`E`E`E"
};
